<svg version="1.1" id="Layer_1" xmlns="http://www.w3.org/2000/svg" xmlns:xlink="http://www.w3.org/1999/xlink" x="0px" y="0px"
	 width="100%" viewBox="0 0 976 1024" enable-background="new 0 0 976 1024" xml:space="preserve">
<path fill="#000000" opacity="1.000000" stroke="none" 
	d="
M452.846436,603.146790 
	C408.389130,604.050842 364.407257,604.371460 320.422699,604.381714 
	C313.176575,604.383423 307.731232,598.875549 307.729950,591.509277 
	C307.707428,463.541504 307.695892,335.573700 307.693512,207.605927 
	C307.693390,200.130966 314.032745,193.723816 321.443359,193.785950 
	C371.920471,194.209137 422.402191,194.383102 472.871887,195.249863 
	C494.512726,195.621506 516.208435,194.801315 537.795837,196.771591 
	C554.581299,198.303619 570.336426,203.778061 585.192932,211.545044 
	C625.017029,232.365036 651.742493,264.022339 663.661743,307.669495 
	C666.171082,316.858368 667.545105,326.237640 667.335144,335.789307 
	C666.981201,351.889893 668.840515,368.126404 664.192383,383.961853 
	C646.700500,443.555023 607.835144,480.632660 547.315613,494.772980 
	C539.204590,496.668121 530.803345,496.827850 522.489014,497.144104 
	C510.506683,497.599884 498.516113,497.839111 486.528839,498.162628 
	C479.107056,498.362915 473.289520,504.326416 473.013336,511.726562 
	C472.012787,538.538208 472.462982,565.363953 472.125916,592.181702 
	C472.039276,599.073914 470.149933,601.281921 463.271790,602.203369 
	C459.974670,602.645020 456.643127,602.829529 452.846436,603.146790 
M426.304626,281.498993 
	C426.347931,287.329956 426.303070,293.163422 426.468597,298.990906 
	C426.563110,302.317017 427.041504,305.420898 429.797882,308.032440 
	C446.124817,323.501404 462.346008,339.082977 478.494965,354.737885 
	C481.137512,357.299591 483.709564,358.060913 486.981842,356.393463 
	C495.409882,352.098755 504.421600,351.378265 513.712402,351.629639 
	C527.712097,352.008362 539.088257,357.745911 546.990540,368.980743 
	C564.258911,393.531555 559.497559,424.226257 531.733765,440.941406 
	C519.143372,448.521454 504.617767,446.760956 491.025879,442.159241 
	C486.391571,440.590210 483.723663,440.895050 480.261322,444.430298 
	C440.155884,485.380890 399.872803,526.157471 359.644501,566.987732 
	C355.138397,571.561340 350.679657,576.181519 345.609985,581.384521 
	C351.299438,581.864746 356.052155,582.548157 360.814240,582.621338 
	C388.466583,583.046753 416.120911,583.349304 443.775055,583.645386 
	C451.324524,583.726196 451.535400,583.499207 451.591003,575.806519 
	C451.736755,555.643555 452.154022,535.474304 451.799011,515.319336 
	C451.622131,505.278748 455.409271,497.185516 461.302795,489.726990 
	C466.504120,483.144379 473.403290,479.406189 481.857971,478.801025 
	C494.308411,477.909851 506.762970,477.135712 519.232178,476.496063 
	C530.152588,475.935791 541.203186,475.764862 551.908813,472.962677 
	C576.165466,466.613525 596.227295,453.339142 613.256165,435.281158 
	C641.304626,405.537689 652.425598,370.116486 647.389099,329.751892 
	C640.173340,271.921265 589.955322,216.150269 519.886963,216.356461 
	C457.729187,216.539368 395.569885,216.316605 333.411774,216.115204 
	C328.644043,216.099762 327.141602,218.019547 327.355896,222.312027 
	C327.447174,224.140060 327.346619,225.977280 327.346069,227.810333 
	C327.324646,297.634949 327.193054,367.459747 327.326752,437.284058 
	C327.406189,478.771027 326.696136,520.265259 328.123749,561.743591 
	C328.181427,563.419373 327.600494,565.317017 330.234253,568.050110 
	C331.508728,566.140564 332.384491,564.225708 333.778473,562.827515 
	C375.894104,520.586426 418.062714,478.398163 460.218018,436.196625 
	C469.946960,426.456970 469.846222,426.486511 464.580292,413.639832 
	C463.246399,410.385773 461.455261,409.063354 457.878876,409.118378 
	C445.549957,409.308044 433.208984,409.449066 420.888000,409.086121 
	C415.497314,408.927338 413.141693,410.779510 413.399048,416.064758 
	C413.538239,418.923279 412.393738,420.348053 409.325958,420.308899 
	C398.164124,420.166321 386.998871,420.260162 375.856567,419.370941 
	C373.894104,419.214294 372.762390,418.511047 372.705688,416.391571 
	C372.402954,405.070740 372.080780,393.750366 371.724792,382.431122 
	C371.637634,379.659210 372.920959,378.596802 375.631897,378.576202 
	C386.625488,378.492554 397.618500,378.322021 408.611115,378.143555 
	C411.836823,378.091217 413.815857,379.225555 413.318054,382.805939 
	C412.725616,387.066620 415.007385,387.773621 418.634033,387.724945 
	C429.797272,387.575043 440.963898,387.678833 452.129181,387.675201 
	C463.552856,387.671478 463.494446,387.646210 467.340179,376.766052 
	C468.217621,374.283752 468.081024,372.576294 466.041687,370.605377 
	C449.387665,354.510101 432.825806,338.318939 416.315735,322.075806 
	C414.246979,320.040497 412.049469,319.257843 409.206116,319.212982 
	C396.547302,319.013275 383.888977,318.716248 371.234619,318.321777 
	C363.199829,318.071289 359.825928,315.659393 359.285217,307.899139 
	C358.139069,291.449036 358.343536,274.947388 359.328613,258.473999 
	C359.583130,254.217941 361.692657,251.826126 366.210327,251.517303 
	C383.848755,250.311569 401.476227,250.220749 419.100769,251.683105 
	C422.967560,252.003937 424.903381,254.015060 425.400208,258.050354 
	C426.320526,265.525818 426.223389,273.008820 426.304626,281.498993 
z"/>
<path fill="#000000" opacity="1.000000" stroke="none" 
	d="
M232.376846,743.420898 
	C228.342300,743.184021 227.949631,745.409241 227.967072,748.251282 
	C228.034531,759.246155 228.009537,770.241821 227.984131,781.237061 
	C227.967819,788.296326 227.940536,788.302246 220.675903,788.308838 
	C214.845001,788.314148 208.995316,788.011841 203.188934,788.387146 
	C198.203415,788.709473 196.588303,787.115967 196.623917,781.966064 
	C196.845154,749.980957 196.734970,717.993591 196.734894,686.006958 
	C196.734879,677.177307 196.855026,668.345337 196.678284,659.519226 
	C196.604950,655.856628 197.906998,654.569336 201.592865,654.589478 
	C236.244003,654.778076 270.896149,654.783691 305.547333,654.967346 
	C313.756927,655.010864 326.257416,667.198486 327.271606,675.876160 
	C328.842773,689.319519 328.711914,702.836609 328.003479,716.295044 
	C327.235138,730.891663 313.781464,742.890259 299.274536,743.507385 
	C277.116058,744.450012 254.977173,743.296814 232.376846,743.420898 
M228.263763,685.103943 
	C228.286041,692.928345 228.399384,700.754089 228.287613,708.576599 
	C228.240234,711.892700 229.700745,712.859558 232.812851,712.889771 
	C252.462769,713.081116 272.114014,713.293152 291.758392,713.765259 
	C295.749786,713.861145 297.300995,712.194214 297.429504,708.686462 
	C297.636749,703.028992 297.695923,697.364807 297.736115,691.702881 
	C297.792542,683.753723 297.574127,683.441284 289.820831,683.395752 
	C270.995636,683.285034 252.169739,683.283203 233.344116,683.268738 
	C231.721603,683.267456 229.968750,682.920044 228.263763,685.103943 
z"/>
<path fill="#000000" opacity="1.000000" stroke="none" 
	d="
M535.160706,679.692749 
	C541.979004,679.665100 548.310181,679.639282 554.641296,679.655762 
	C561.161377,679.672729 561.232056,679.716064 561.237671,686.460144 
	C561.255493,707.786316 561.369507,729.114075 561.124207,750.437500 
	C561.071350,755.036316 562.276123,756.956543 567.038086,757.262451 
	C580.331299,758.116455 593.625244,758.462280 606.938416,758.342957 
	C610.499695,758.311035 609.671021,755.585754 609.677856,753.621887 
	C609.735474,737.127625 609.705444,720.633057 609.703125,704.138611 
	C609.702271,697.807434 609.798950,691.474243 609.666504,685.145813 
	C609.599182,681.932922 610.891479,680.651123 614.083740,680.699707 
	C621.079712,680.806335 628.080139,680.818848 635.075378,680.689087 
	C638.376221,680.627808 639.413086,682.092529 639.376282,685.212708 
	C638.908997,724.853333 640.345642,764.511658 638.307434,804.136841 
	C637.773926,814.508728 627.364014,824.283386 615.769104,825.199219 
	C593.984009,826.919800 572.143127,826.057373 550.327515,826.400269 
	C546.817627,826.455444 545.612854,824.958862 545.676086,821.617249 
	C545.792664,815.455078 545.883423,809.280273 545.612305,803.127136 
	C545.428589,798.957031 547.031982,797.628479 551.104248,797.664185 
	C568.430420,797.816345 585.758789,797.743103 603.086182,797.704407 
	C604.852112,797.700500 606.793152,798.179749 608.225159,796.519592 
	C610.847717,793.479614 609.783081,789.960083 605.783081,789.101501 
	C603.363525,788.582153 600.842041,788.443481 598.357666,788.335938 
	C584.882446,787.752869 571.349243,787.814148 557.941833,786.539795 
	C542.147888,785.038513 532.389160,774.635925 532.028503,758.787048 
	C531.460144,733.807312 531.715637,708.808838 531.629028,683.818298 
	C531.621704,681.710144 531.778931,679.686646 535.160706,679.692749 
z"/>
<path fill="#000000" opacity="1.000000" stroke="none" 
	d="
M404.658997,702.900879 
	C404.661896,696.251038 404.796082,690.084473 404.619629,683.926819 
	C404.523438,680.571350 405.623779,678.940613 409.143219,679.099304 
	C435.593262,680.291748 462.102295,679.061035 488.531952,680.917053 
	C499.843750,681.711426 511.591858,693.693115 512.168945,705.016479 
	C513.491638,730.970825 513.330811,756.952881 513.332642,782.931641 
	C513.332947,786.551636 511.796539,787.386841 508.544586,787.470947 
	C484.239777,788.099487 459.937744,788.793579 435.641693,787.249634 
	C430.139893,786.899963 424.672668,786.119446 419.577606,783.944824 
	C410.916229,780.247986 406.601532,773.197144 405.744598,764.139282 
	C404.535522,751.359192 405.091980,738.514465 404.906830,725.696167 
	C404.843964,721.344360 406.111115,719.651794 410.859253,719.532227 
	C433.504120,718.961670 456.149872,718.843872 478.796783,718.897217 
	C482.963501,718.906982 485.056335,717.849365 484.562042,713.238586 
	C484.155792,709.449463 481.815674,709.331543 478.932343,709.337769 
	C456.279816,709.386475 433.626343,709.272827 410.975281,709.464722 
	C406.379608,709.503601 403.918762,708.384644 404.658997,702.900879 
M449.504364,745.201599 
	C445.684509,745.177429 441.864685,745.154175 438.044830,745.128784 
	C436.014069,745.115295 434.318298,745.587646 434.376221,748.084534 
	C434.451813,751.345337 433.824493,754.664124 435.104462,758.576599 
	C448.678406,758.576599 462.270111,758.574890 475.861816,758.577209 
	C484.462097,758.578613 484.203186,758.589478 483.938843,750.206116 
	C483.807190,746.030212 481.983429,745.273926 478.405640,745.314148 
	C469.106018,745.418701 459.803467,745.262024 449.504364,745.201599 
z"/>
<path fill="#000000" opacity="1.000000" stroke="none" 
	d="
M740.244446,731.000061 
	C740.244080,740.142212 740.244080,748.784485 740.244080,758.129028 
	C746.082214,758.129028 751.503357,758.128357 756.924438,758.129211 
	C762.922852,758.130188 768.921387,758.147461 774.919739,758.127930 
	C777.978333,758.118042 779.433289,759.387634 779.367249,762.651245 
	C779.222229,769.813293 779.291626,776.980469 779.338989,784.145142 
	C779.355713,786.677307 778.675842,788.275879 775.713684,788.273682 
	C760.555908,788.262695 745.427551,788.111389 730.436646,785.314087 
	C721.860901,783.713867 711.324829,771.483337 711.449646,761.225220 
	C711.828674,730.083130 710.993958,698.925842 710.577332,667.775146 
	C710.514954,663.117371 710.197754,658.461304 709.926086,653.808655 
	C709.726685,650.392578 711.315125,648.967102 714.665039,648.995789 
	C721.496094,649.054138 728.329956,649.078247 735.159241,648.943298 
	C739.115784,648.865112 740.380310,650.734314 740.294617,654.465332 
	C740.137695,661.293335 740.544617,668.142944 740.176331,674.954346 
	C739.919006,679.713257 741.754944,680.886047 746.208496,680.841919 
	C756.678894,680.738159 767.177002,680.547241 778.318542,682.000854 
	C778.318542,690.056885 778.452148,698.143494 778.250244,706.221741 
	C778.173645,709.285583 775.364868,708.987610 773.276489,709.022156 
	C763.946838,709.176575 754.612305,709.411377 745.286377,709.242126 
	C741.239563,709.168701 740.028320,710.676880 740.196838,714.506104 
	C740.430969,719.827881 740.248779,725.167908 740.244446,731.000061 
z"/>
<path fill="#000000" opacity="1.000000" stroke="none" 
	d="
M340.703796,654.135498 
	C340.921600,646.061340 340.980408,646.199097 348.672546,645.559326 
	C354.499451,645.074707 360.324402,645.325500 366.135376,645.023254 
	C370.316986,644.805786 371.490875,646.326904 371.472534,650.479065 
	C371.322327,684.457275 371.485840,718.437012 371.301697,752.414856 
	C371.276917,756.984253 372.347931,758.738708 377.093811,758.179626 
	C380.705261,757.754272 384.411591,758.119507 388.075409,758.158813 
	C390.828400,758.188293 392.382416,759.292480 392.338654,762.361816 
	C392.234161,769.689026 392.260529,777.018982 392.326050,784.347107 
	C392.350311,787.058289 391.245667,788.260437 388.480927,788.275696 
	C378.973236,788.328125 369.481964,788.261963 360.296509,785.346802 
	C348.918488,781.735840 341.012726,770.912720 340.981842,759.050293 
	C340.891144,724.239197 340.794250,689.428040 340.703796,654.135498 
z"/>
<path fill="#000000" opacity="1.000000" stroke="none" 
	d="
M669.071716,680.725098 
	C674.887512,680.725708 680.217041,680.828003 685.540527,680.691467 
	C688.783386,680.608276 690.399475,681.533691 690.389404,685.175110 
	C690.300354,717.469971 690.314575,749.765198 690.386780,782.060120 
	C690.393616,785.110229 689.396851,786.804688 686.252930,786.991516 
	C679.280396,787.406067 672.306213,787.799683 665.338745,788.287720 
	C661.852844,788.531921 660.695496,786.983948 660.702209,783.584717 
	C660.766724,750.956787 660.806091,718.328308 660.645447,685.700989 
	C660.612915,679.096375 665.128845,681.069824 669.071716,680.725098 
z"/>
<path fill="#000000" opacity="1.000000" stroke="none" 
	d="
M660.729736,656.055359 
	C660.735352,645.790222 660.734985,645.774841 670.225525,645.564514 
	C675.533997,645.446777 680.846802,645.470764 686.151855,645.274231 
	C689.048828,645.166809 690.435547,646.111084 690.371826,649.230957 
	C690.239441,655.709351 690.266724,662.193848 690.381165,668.673096 
	C690.430420,671.458435 689.340027,672.516052 686.561279,672.468384 
	C679.417175,672.345764 672.268921,672.326538 665.124573,672.427856 
	C661.943542,672.472961 660.585388,671.211792 660.698059,668.009155 
	C660.832336,664.191589 660.729431,660.365723 660.729736,656.055359 
z"/>
<path fill="#000000" opacity="1.000000" stroke="none" 
	d="
M493.733276,272.400360 
	C494.204163,268.464478 496.708099,267.563232 499.547180,267.951447 
	C506.825867,268.946686 514.135437,268.857574 521.439819,268.958008 
	C524.558960,269.000916 526.030579,270.287903 525.953308,273.455139 
	C525.787476,280.260162 526.133728,287.062012 525.472839,293.876190 
	C525.024658,298.497070 522.760376,300.375000 518.396179,300.336700 
	C511.748260,300.278290 505.099457,300.138336 498.452728,300.204926 
	C494.950531,300.239960 493.772736,298.525116 493.786163,295.294647 
	C493.817261,287.815979 493.740021,280.336823 493.733276,272.400360 
z"/>
</svg>