<?xml version="1.0" encoding="UTF-8" standalone="no"?>
<!DOCTYPE svg PUBLIC "-//W3C//DTD SVG 1.1//EN" "http://www.w3.org/Graphics/SVG/1.1/DTD/svg11.dtd">
<svg width="100%" height="100%" viewBox="0 0 4067 4267" version="1.1" xmlns="http://www.w3.org/2000/svg" xmlns:xlink="http://www.w3.org/1999/xlink" xml:space="preserve" xmlns:serif="http://www.serif.com/" style="fill-rule:evenodd;clip-rule:evenodd;stroke-linecap:round;stroke-linejoin:round;stroke-miterlimit:1.5;">
    <g>
        <g transform="matrix(4.166667,0,0,4.166667,0,0)">
            <path d="M232.377,743.421C228.342,743.184 227.95,745.409 227.967,748.251C228.035,759.246 228.01,770.242 227.984,781.237C227.968,788.296 227.941,788.302 220.676,788.309C214.845,788.314 208.995,788.012 203.189,788.387C198.203,788.709 196.588,787.116 196.624,781.966C196.845,749.981 196.735,717.994 196.735,686.007C196.735,677.177 196.855,668.345 196.678,659.519C196.605,655.857 197.907,654.569 201.593,654.589C236.244,654.778 270.896,654.784 305.547,654.967C313.757,655.011 326.257,667.198 327.272,675.876C328.843,689.32 328.712,702.837 328.003,716.295C327.235,730.892 313.781,742.89 299.275,743.507C277.116,744.45 254.977,743.297 232.377,743.421M228.264,685.104C228.286,692.928 228.399,700.754 228.288,708.577C228.24,711.893 229.701,712.86 232.813,712.89C252.463,713.081 272.114,713.293 291.758,713.765C295.75,713.861 297.301,712.194 297.43,708.686C297.637,703.029 297.696,697.365 297.736,691.703C297.793,683.754 297.574,683.441 289.821,683.396C270.996,683.285 252.17,683.283 233.344,683.269C231.722,683.267 229.969,682.92 228.264,685.104Z" style="fill-rule:nonzero;"/>
        </g>
        <g transform="matrix(4.166667,0,0,4.166667,0,0)">
            <path d="M535.161,679.693C541.979,679.665 548.31,679.639 554.641,679.656C561.161,679.673 561.232,679.716 561.238,686.46C561.255,707.786 561.37,729.114 561.124,750.438C561.071,755.036 562.276,756.957 567.038,757.262C580.331,758.116 593.625,758.462 606.938,758.343C610.5,758.311 609.671,755.586 609.678,753.622C609.735,737.128 609.705,720.633 609.703,704.139C609.702,697.807 609.799,691.474 609.667,685.146C609.599,681.933 610.891,680.651 614.084,680.7C621.08,680.806 628.08,680.819 635.075,680.689C638.376,680.628 639.413,682.093 639.376,685.213C638.909,724.853 640.346,764.512 638.307,804.137C637.774,814.509 627.364,824.283 615.769,825.199C593.984,826.92 572.143,826.057 550.328,826.4C546.818,826.455 545.613,824.959 545.676,821.617C545.793,815.455 545.883,809.28 545.612,803.127C545.429,798.957 547.032,797.628 551.104,797.664C568.43,797.816 585.759,797.743 603.086,797.704C604.852,797.701 606.793,798.18 608.225,796.52C610.848,793.48 609.783,789.96 605.783,789.102C603.364,788.582 600.842,788.443 598.358,788.336C584.882,787.753 571.349,787.814 557.942,786.54C542.148,785.039 532.389,774.636 532.029,758.787C531.46,733.807 531.716,708.809 531.629,683.818C531.622,681.71 531.779,679.687 535.161,679.693Z" style="fill-rule:nonzero;"/>
        </g>
        <g transform="matrix(4.166667,0,0,4.166667,0,0)">
            <path d="M404.659,702.901C404.662,696.251 404.796,690.084 404.62,683.927C404.523,680.571 405.624,678.941 409.143,679.099C435.593,680.292 462.102,679.061 488.532,680.917C499.844,681.711 511.592,693.693 512.169,705.016C513.492,730.971 513.331,756.953 513.333,782.932C513.333,786.552 511.797,787.387 508.545,787.471C484.24,788.099 459.938,788.794 435.642,787.25C430.14,786.9 424.673,786.119 419.578,783.945C410.916,780.248 406.602,773.197 405.745,764.139C404.536,751.359 405.092,738.514 404.907,725.696C404.844,721.344 406.111,719.652 410.859,719.532C433.504,718.962 456.15,718.844 478.797,718.897C482.964,718.907 485.056,717.849 484.562,713.239C484.156,709.449 481.816,709.332 478.932,709.338C456.28,709.386 433.626,709.273 410.975,709.465C406.38,709.504 403.919,708.385 404.659,702.901M449.504,745.202C445.685,745.177 441.865,745.154 438.045,745.129C436.014,745.115 434.318,745.588 434.376,748.085C434.452,751.345 433.824,754.664 435.104,758.577C448.678,758.577 462.27,758.575 475.862,758.577C484.462,758.579 484.203,758.589 483.939,750.206C483.807,746.03 481.983,745.274 478.406,745.314C469.106,745.419 459.803,745.262 449.504,745.202Z" style="fill-rule:nonzero;"/>
        </g>
        <g transform="matrix(4.166667,0,0,4.166667,0,0)">
            <path d="M740.244,731C740.244,740.142 740.244,748.784 740.244,758.129C746.082,758.129 751.503,758.128 756.924,758.129C762.923,758.13 768.921,758.147 774.92,758.128C777.978,758.118 779.433,759.388 779.367,762.651C779.222,769.813 779.292,776.98 779.339,784.145C779.356,786.677 778.676,788.276 775.714,788.274C760.556,788.263 745.428,788.111 730.437,785.314C721.861,783.714 711.325,771.483 711.45,761.225C711.829,730.083 710.994,698.926 710.577,667.775C710.515,663.117 710.198,658.461 709.926,653.809C709.727,650.393 711.315,648.967 714.665,648.996C721.496,649.054 728.33,649.078 735.159,648.943C739.116,648.865 740.38,650.734 740.295,654.465C740.138,661.293 740.545,668.143 740.176,674.954C739.919,679.713 741.755,680.886 746.208,680.842C756.679,680.738 767.177,680.547 778.319,682.001C778.319,690.057 778.452,698.143 778.25,706.222C778.174,709.286 775.365,708.988 773.276,709.022C763.947,709.177 754.612,709.411 745.286,709.242C741.24,709.169 740.028,710.677 740.197,714.506C740.431,719.828 740.249,725.168 740.244,731Z" style="fill-rule:nonzero;"/>
        </g>
        <g transform="matrix(4.166667,0,0,4.166667,0,0)">
            <path d="M340.704,654.135C340.922,646.061 340.98,646.199 348.673,645.559C354.499,645.075 360.324,645.326 366.135,645.023C370.317,644.806 371.491,646.327 371.473,650.479C371.322,684.457 371.486,718.437 371.302,752.415C371.277,756.984 372.348,758.739 377.094,758.18C380.705,757.754 384.412,758.12 388.075,758.159C390.828,758.188 392.382,759.292 392.339,762.362C392.234,769.689 392.261,777.019 392.326,784.347C392.35,787.058 391.246,788.26 388.481,788.276C378.973,788.328 369.482,788.262 360.297,785.347C348.918,781.736 341.013,770.913 340.982,759.05C340.891,724.239 340.794,689.428 340.704,654.135Z" style="fill-rule:nonzero;"/>
        </g>
        <g transform="matrix(4.166667,0,0,4.166667,0,0)">
            <path d="M669.072,680.725C674.888,680.726 680.217,680.828 685.541,680.691C688.783,680.608 690.399,681.534 690.389,685.175C690.3,717.47 690.315,749.765 690.387,782.06C690.394,785.11 689.397,786.805 686.253,786.992C679.28,787.406 672.306,787.8 665.339,788.288C661.853,788.532 660.695,786.984 660.702,783.585C660.767,750.957 660.806,718.328 660.645,685.701C660.613,679.096 665.129,681.07 669.072,680.725Z" style="fill-rule:nonzero;"/>
        </g>
        <g transform="matrix(4.166667,0,0,4.166667,0,0)">
            <path d="M660.73,656.055C660.735,645.79 660.735,645.775 670.226,645.565C675.534,645.447 680.847,645.471 686.152,645.274C689.049,645.167 690.436,646.111 690.372,649.231C690.239,655.709 690.267,662.194 690.381,668.673C690.43,671.458 689.34,672.516 686.561,672.468C679.417,672.346 672.269,672.327 665.125,672.428C661.944,672.473 660.585,671.212 660.698,668.009C660.832,664.192 660.729,660.366 660.73,656.055Z" style="fill-rule:nonzero;"/>
        </g>
    </g>
    <path d="M1282.056,2462.553L1282.056,863.144C1282.056,832.4 1307.017,807.44 1337.761,807.44L2178.669,807.44C2511.047,807.44 2780.895,1077.288 2780.895,1409.666L2780.895,1472.157C2780.895,1804.535 2511.047,2074.383 2178.669,2074.383L1965,2074.383L1965,2462.553C1965,2493.297 1940.04,2518.257 1909.296,2518.257L1337.761,2518.257C1307.017,2518.257 1282.056,2493.297 1282.056,2462.553Z" style="fill:none;stroke:black;stroke-width:125px;"/>
    <g transform="matrix(1.098425,0,0,1.098425,-152.53937,-108.543307)">
        <path d="M1753,1085.256L1753,1272.744C1753,1291.099 1738.099,1306 1719.744,1306L1532.256,1306C1513.901,1306 1499,1291.099 1499,1272.744L1499,1085.256C1499,1066.901 1513.901,1052 1532.256,1052L1719.744,1052C1738.099,1052 1753,1066.901 1753,1085.256Z"/>
    </g>
    <g transform="matrix(0.932243,0,0,0.932243,-1026.148023,-66.462381)">
        <circle cx="3379" cy="1855" r="214"/>
    </g>
    <g transform="matrix(0.553581,0,0,0.553581,1223.777777,528.42807)">
        <path d="M1753,1085.256L1753,1272.744C1753,1291.099 1738.099,1306 1719.744,1306L1532.256,1306C1513.901,1306 1499,1291.099 1499,1272.744L1499,1085.256C1499,1066.901 1513.901,1052 1532.256,1052L1719.744,1052C1738.099,1052 1753,1066.901 1753,1085.256Z"/>
    </g>
    <g transform="matrix(0.695314,0,0,0.695314,505.724408,845.340578)">
        <path d="M1753,1085.256L1753,1272.744C1753,1291.099 1738.099,1306 1719.744,1306L1532.256,1306C1513.901,1306 1499,1291.099 1499,1272.744L1499,1085.256C1499,1066.901 1513.901,1052 1532.256,1052L1719.744,1052C1738.099,1052 1753,1066.901 1753,1085.256Z"/>
    </g>
    <path d="M1724.609,1283C1735.323,1282.577 2123.901,1662.848 2123.901,1662.848L1282.056,2518.257" style="fill:none;stroke:black;stroke-width:75px;"/>
    <path d="M1636.304,1665.115L2123.901,1665.115" style="fill:none;stroke:black;stroke-width:75px;"/>
</svg>
